<?xml version="1.0" standalone="no"?>
<!DOCTYPE svg PUBLIC "-//W3C//DTD SVG 20010904//EN"
 "http://www.w3.org/TR/2001/REC-SVG-20010904/DTD/svg10.dtd">
<svg version="1.0" xmlns="http://www.w3.org/2000/svg"
 width="256.000000pt" height="256.000000pt" viewBox="0 0 256.000000 256.000000"
 preserveAspectRatio="xMidYMid meet">
<metadata>
Created by potrace 1.11, written by Peter Selinger 2001-2013
</metadata>
<g transform="translate(0.000000,256.000000) scale(0.100000,-0.100000)"
fill="#000000" stroke="none">
<path d="M1535 2391 c-3 -5 -2 -12 3 -15 5 -3 9 1 9 9 0 17 -3 19 -12 6z"/>
<path d="M1644 2392 c4 -8 -1 -12 -13 -13 -12 -1 -24 -2 -29 -3 -27 -4 -182
-92 -182 -103 0 -8 -4 -11 -10 -8 -5 3 -10 1 -10 -4 0 -6 -5 -11 -11 -11 -5 0
-7 5 -3 12 4 7 3 8 -4 4 -6 -4 -8 -14 -5 -23 4 -10 2 -14 -4 -10 -6 4 -13 -3
-16 -14 -3 -12 -10 -18 -16 -14 -6 3 -11 -2 -11 -12 -1 -24 -55 -95 -66 -85
-4 4 -3 0 4 -10 9 -11 9 -17 2 -20 -10 -3 -16 -21 -19 -51 -1 -5 -7 -5 -13 -1
-10 6 -10 4 0 -8 7 -9 9 -19 4 -22 -5 -3 -8 -21 -7 -41 0 -19 -3 -35 -7 -35
-5 0 -5 -8 0 -17 11 -22 4 -46 -10 -37 -7 4 -8 2 -4 -5 4 -6 11 -9 16 -6 5 3
13 -3 19 -12 6 -10 11 -13 11 -7 0 15 40 10 52 -7 8 -11 9 -10 4 5 -5 13 -2
17 9 12 8 -3 15 -1 15 3 0 5 13 8 29 7 22 -1 27 2 23 13 -3 9 -1 12 7 7 6 -4
19 -2 28 6 14 11 16 11 8 -2 -4 -8 -5 -12 0 -8 4 4 15 2 24 -5 14 -11 15 -10
1 7 -13 16 -12 20 4 32 11 7 23 11 27 8 5 -3 17 0 26 6 17 11 17 11 1 6 -10
-3 -18 -3 -18 0 0 10 44 43 58 44 6 0 12 6 12 14 0 9 7 12 23 9 16 -3 18 -2 8
5 -11 8 -10 14 4 36 10 14 22 26 27 26 5 0 6 5 3 10 -3 6 -1 10 6 10 7 0 9 3
6 7 -11 10 31 35 46 27 9 -5 9 -4 0 6 -10 11 -15 11 -30 -1 -17 -13 -17 -13
-3 5 8 10 15 25 16 34 2 8 6 18 11 21 8 6 11 26 18 118 2 29 6 57 10 63 3 5 1
10 -5 10 -6 0 -8 5 -4 11 4 7 -2 10 -17 8 -13 -2 -30 1 -38 5 -10 6 -12 5 -7
-2z"/>
<path d="M1715 2261 c-3 -5 -2 -12 3 -15 5 -3 9 1 9 9 0 17 -3 19 -12 6z"/>
<path d="M1650 2059 c0 -5 5 -7 10 -4 6 3 10 8 10 11 0 2 -4 4 -10 4 -5 0 -10
-5 -10 -11z"/>
<path d="M1535 1940 c3 -5 8 -10 11 -10 2 0 4 5 4 10 0 6 -5 10 -11 10 -5 0
-7 -4 -4 -10z"/>
<path d="M906 1883 c-11 -10 -15 -12 -11 -4 6 10 4 12 -6 5 -8 -4 -27 -9 -44
-11 -46 -5 -81 -14 -116 -33 -10 -5 -21 -4 -28 3 -10 9 -12 9 -9 -3 2 -9 -6
-15 -24 -15 -15 -1 -31 -5 -35 -9 -4 -5 2 -5 15 -2 33 11 27 1 -14 -23 -30
-18 -39 -19 -53 -9 -14 11 -14 11 -4 -2 9 -12 5 -21 -22 -46 -19 -17 -37 -29
-40 -26 -3 3 -5 1 -5 -4 0 -5 -12 -22 -26 -39 -14 -16 -34 -44 -45 -62 -14
-22 -25 -30 -37 -27 -15 5 -15 4 -2 -6 11 -8 12 -13 3 -16 -7 -3 -9 -12 -6
-21 5 -12 3 -14 -7 -8 -9 5 -11 4 -6 -4 4 -6 2 -18 -4 -26 -7 -8 -9 -15 -4
-15 4 0 -5 -13 -20 -28 -24 -26 -25 -30 -11 -42 14 -11 13 -14 -2 -26 -10 -7
-13 -14 -6 -14 8 0 9 -9 4 -27 -4 -16 -6 -34 -3 -42 3 -8 0 -11 -6 -7 -6 3
-14 2 -17 -4 -4 -6 -3 -10 2 -9 22 4 25 -3 7 -17 -10 -8 -13 -13 -6 -9 9 4 12
-6 12 -39 0 -26 -5 -46 -12 -49 -10 -3 -10 -8 2 -22 8 -9 16 -33 17 -53 2 -32
1 -33 -13 -16 -14 17 -14 17 -2 -6 7 -14 11 -28 10 -32 -1 -5 3 -8 9 -8 8 0 7
-6 -2 -17 -12 -14 -12 -16 0 -8 11 6 13 1 9 -24 -2 -17 -1 -31 4 -31 5 0 6 -4
3 -10 -3 -5 -1 -10 5 -10 7 0 10 -6 7 -12 -2 -7 0 -24 5 -37 7 -20 6 -23 -12
-18 -11 3 -18 1 -14 -4 3 -5 14 -9 26 -9 15 0 19 -5 15 -20 -3 -11 -1 -20 5
-20 5 0 7 -4 4 -9 -4 -5 -1 -11 4 -13 6 -2 12 -14 12 -28 1 -14 6 -28 11 -31
4 -3 9 -13 11 -21 3 -22 79 -172 89 -176 4 -2 3 -10 -4 -18 -9 -12 -9 -13 4
-9 8 4 18 1 23 -6 5 -8 3 -10 -7 -5 -8 4 -5 0 5 -8 11 -9 16 -16 10 -16 -5 0
-2 -5 6 -10 13 -9 13 -11 0 -20 -12 -9 -12 -10 5 -8 12 2 19 -2 18 -9 -2 -7 3
-12 10 -10 6 1 11 -6 11 -15 -1 -10 3 -16 10 -15 6 1 10 -6 9 -16 0 -10 2 -16
5 -13 3 3 14 -1 24 -10 13 -12 15 -21 7 -30 -7 -9 -6 -14 2 -20 8 -4 9 -3 5 4
-4 7 -1 12 9 12 11 0 15 -5 11 -16 -3 -8 -2 -12 4 -9 12 7 42 -20 33 -29 -4
-3 1 -6 10 -6 10 0 17 -5 17 -11 0 -5 5 -7 10 -4 14 9 12 -8 -2 -25 -11 -12
-10 -12 2 -4 22 15 37 12 55 -11 9 -11 13 -13 9 -5 -7 12 -2 11 19 -3 15 -10
42 -19 60 -20 18 -2 37 -6 43 -10 6 -3 14 -3 18 0 4 4 17 8 29 9 37 4 63 12
103 32 36 18 70 20 60 3 -3 -4 3 -7 13 -7 10 0 18 6 18 12 0 7 -6 10 -14 7 -7
-3 -13 0 -13 6 0 6 10 11 23 11 12 0 29 5 37 10 11 7 17 5 22 -8 6 -16 7 -16
7 1 1 9 6 17 12 17 5 0 8 -4 5 -8 -2 -4 4 -8 14 -8 10 0 16 5 13 12 -5 12 33
12 44 -1 5 -4 2 -5 -4 -1 -9 5 -11 2 -6 -10 4 -11 8 -13 11 -6 2 7 8 10 13 7
5 -4 6 2 3 12 -5 16 -4 16 10 -1 16 -20 16 -20 17 0 0 10 3 14 5 7 3 -7 12 -9
20 -6 8 3 14 0 14 -6 0 -5 12 -10 28 -10 54 0 64 -4 59 -22 -3 -12 0 -16 9
-12 8 3 11 9 8 14 -6 10 43 -9 63 -24 7 -5 10 -14 6 -20 -4 -6 -1 -7 8 -1 18
11 52 6 61 -10 5 -6 8 -7 8 -1 0 6 9 11 20 11 11 0 20 -4 20 -8 0 -4 5 -8 11
-8 5 0 8 3 6 8 -3 4 11 8 30 9 19 1 40 7 47 12 7 6 16 8 19 4 4 -3 7 -1 7 6 0
8 8 11 19 8 14 -3 18 -1 14 9 -4 10 0 12 11 8 11 -4 16 -1 16 10 0 10 5 13 17
9 11 -4 14 -3 9 5 -4 7 -2 12 4 12 6 0 8 4 5 10 -4 6 1 7 12 3 10 -3 15 -3 11
1 -9 10 41 66 59 66 7 0 13 5 13 11 0 5 -5 7 -11 4 -6 -4 -5 2 2 13 7 11 18
18 24 15 7 -2 15 3 19 12 4 11 2 14 -7 9 -6 -3 1 5 17 20 16 14 25 26 20 26
-5 0 -2 4 6 10 9 6 20 5 30 -3 13 -11 13 -10 1 5 -7 10 -18 15 -24 11 -6 -4
-7 -1 -3 6 5 7 15 10 23 6 13 -4 14 -3 4 9 -11 13 -7 18 21 31 20 9 23 12 9 9
l-25 -6 22 33 c12 19 26 33 32 32 5 -2 7 4 3 12 -3 9 1 23 9 33 8 9 18 25 21
35 4 11 12 15 19 11 8 -5 7 0 -2 11 -14 17 -13 18 10 12 23 -5 23 -5 7 8 -12
8 -14 15 -7 20 5 3 8 11 5 16 -4 5 -1 9 5 9 8 0 8 6 0 20 -6 11 -15 18 -20 15
-13 -8 -52 14 -45 25 4 6 -1 7 -11 3 -14 -5 -16 -3 -11 12 6 14 5 16 -6 6 -11
-9 -22 -4 -51 23 -20 19 -36 40 -36 46 0 6 -4 8 -10 5 -5 -3 -10 3 -10 15 0
13 4 19 12 14 7 -4 8 -3 4 5 -6 8 -12 9 -20 2 -17 -14 -29 -1 -14 16 8 11 7
12 -5 8 -8 -4 -18 -1 -23 6 -4 8 -3 10 4 5 8 -5 10 -2 6 8 -3 9 -10 14 -14 11
-8 -5 -20 21 -26 53 -1 8 -5 16 -8 19 -3 4 2 11 11 18 13 9 13 14 3 20 -9 5
-11 4 -6 -3 4 -7 1 -12 -6 -12 -8 0 -15 10 -16 23 -1 12 -4 31 -6 42 -1 11 4
25 13 32 13 10 14 11 1 10 -16 -2 -20 4 -20 30 0 15 2 14 16 -3 14 -18 15 -18
4 5 -10 19 -9 25 1 32 8 5 9 9 4 9 -6 0 -17 -6 -24 -12 -11 -11 -12 -9 -3 8 6
12 12 38 14 58 2 31 5 35 23 31 18 -5 18 -5 2 5 -14 9 -15 14 -5 33 7 12 13
27 14 32 0 6 4 18 9 28 6 14 10 15 23 5 13 -11 14 -10 5 7 -9 17 -6 26 16 50
46 51 59 59 75 45 13 -10 14 -7 10 14 -5 32 18 45 44 25 15 -13 16 -12 3 4
-12 15 -12 19 3 30 15 11 14 15 -14 45 -16 18 -30 37 -30 43 0 5 -7 9 -15 9
-18 0 -19 11 -2 30 10 12 9 12 -5 1 -15 -11 -21 -11 -35 0 -34 26 -42 37 -35
43 3 4 -1 4 -11 0 -9 -3 -17 -1 -17 5 0 6 -7 8 -15 5 -8 -4 -15 -2 -15 4 0 5
-20 16 -45 23 -25 7 -45 16 -45 20 0 3 -17 6 -37 7 -21 1 -39 6 -41 12 -2 6
-9 7 -14 4 -15 -10 -97 -11 -91 -2 2 5 0 8 -6 8 -5 0 -11 -4 -13 -9 -1 -6 -21
-11 -43 -13 -22 -2 -43 -7 -47 -13 -5 -6 -8 -5 -8 3 0 6 -5 12 -10 12 -6 0 -9
-3 -9 -7 4 -22 -3 -24 -23 -7 -15 13 -19 14 -10 3 14 -19 5 -24 -105 -59 -34
-10 -45 -10 -57 -1 -17 14 -17 31 -1 44 6 5 4 7 -5 4 -17 -4 -21 -26 -7 -45 6
-7 7 -15 3 -19 -3 -4 -13 2 -20 13 -8 10 -18 16 -22 11 -4 -4 -2 -7 4 -7 7 0
12 -4 12 -9 0 -8 -31 -7 -92 2 -10 2 -21 6 -24 10 -4 4 -17 7 -29 7 -13 0 -27
10 -34 23 -6 12 -10 15 -7 6 4 -15 0 -15 -29 -6 -19 5 -31 15 -28 20 3 6 1 7
-6 3 -6 -4 -19 -2 -28 6 -9 7 -14 8 -10 2 7 -12 -44 2 -72 20 -10 6 -12 5 -7
-2 4 -7 1 -12 -9 -12 -10 0 -13 5 -9 13 5 8 2 8 -9 -2 -15 -12 -21 -9 -18 12
2 11 -3 9 -23 -10z m-543 -453 c-3 -11 -9 -17 -15 -14 -5 3 -4 12 3 20 16 19
18 18 12 -6z"/>
<path d="M1470 1889 c0 -5 5 -7 10 -4 6 3 10 8 10 11 0 2 -4 4 -10 4 -5 0 -10
-5 -10 -11z"/>
<path d="M755 1881 c-3 -5 -2 -12 3 -15 5 -3 9 1 9 9 0 17 -3 19 -12 6z"/>
<path d="M1935 1860 c3 -5 8 -10 11 -10 2 0 4 5 4 10 0 6 -5 10 -11 10 -5 0
-7 -4 -4 -10z"/>
<path d="M1411 1844 c0 -11 3 -14 6 -6 3 7 2 16 -1 19 -3 4 -6 -2 -5 -13z"/>
<path d="M1436 1838 c3 -5 10 -6 15 -3 13 9 11 12 -6 12 -8 0 -12 -4 -9 -9z"/>
<path d="M1490 1840 c-9 -6 -10 -10 -3 -10 6 0 15 5 18 10 8 12 4 12 -15 0z"/>
<path d="M1270 1819 c0 -5 5 -7 10 -4 6 3 10 8 10 11 0 2 -4 4 -10 4 -5 0 -10
-5 -10 -11z"/>
<path d="M1428 1813 c7 -3 16 -2 19 1 4 3 -2 6 -13 5 -11 0 -14 -3 -6 -6z"/>
<path d="M1295 1800 c3 -5 8 -10 11 -10 2 0 4 5 4 10 0 6 -5 10 -11 10 -5 0
-7 -4 -4 -10z"/>
<path d="M2070 1781 c0 -6 4 -13 10 -16 6 -3 7 1 4 9 -7 18 -14 21 -14 7z"/>
<path d="M2056 1522 c-3 -4 0 -14 6 -22 8 -12 9 -12 4 3 -4 14 -1 16 20 13 15
-3 24 -2 20 1 -10 10 -44 14 -50 5z"/>
<path d="M2025 1491 c-3 -5 0 -13 6 -17 7 -4 9 -3 5 4 -3 5 0 13 6 15 9 4 10
6 1 6 -6 1 -14 -3 -18 -8z"/>
<path d="M1986 1384 c-5 -14 -4 -15 9 -4 17 14 19 20 6 20 -5 0 -12 -7 -15
-16z"/>
<path d="M1961 1324 c0 -11 3 -14 6 -6 3 7 2 16 -1 19 -3 4 -6 -2 -5 -13z"/>
<path d="M1970 1296 c0 -2 8 -10 18 -17 15 -13 16 -12 3 4 -13 16 -21 21 -21
13z"/>
<path d="M306 1122 c-3 -5 1 -9 9 -9 8 0 12 4 9 9 -3 4 -7 8 -9 8 -2 0 -6 -4
-9 -8z"/>
<path d="M1996 1047 c3 -10 9 -15 12 -12 3 3 0 11 -7 18 -10 9 -11 8 -5 -6z"/>
<path d="M2087 899 c7 -7 15 -10 18 -7 3 3 -2 9 -12 12 -14 6 -15 5 -6 -5z"/>
<path d="M2195 620 c-3 -5 -1 -10 4 -10 6 0 11 5 11 10 0 6 -2 10 -4 10 -3 0
-8 -4 -11 -10z"/>
<path d="M2159 553 c-7 -10 -9 -15 -5 -11 5 4 16 2 25 -5 14 -10 14 -10 3 5
-10 13 -10 17 0 21 8 3 8 6 2 6 -6 1 -18 -7 -25 -16z"/>
<path d="M2095 400 c3 -5 8 -10 11 -10 2 0 4 5 4 10 0 6 -5 10 -11 10 -5 0 -7
-4 -4 -10z"/>
<path d="M2027 349 c7 -7 15 -10 18 -7 3 3 -2 9 -12 12 -14 6 -15 5 -6 -5z"/>
<path d="M1980 301 c-7 -15 -7 -22 2 -27 7 -4 10 -4 6 1 -4 4 -3 16 3 26 5 11
7 19 5 19 -3 0 -10 -9 -16 -19z"/>
<path d="M693 255 c0 -8 4 -12 9 -9 5 3 6 10 3 15 -9 13 -12 11 -12 -6z"/>
<path d="M1460 226 c0 -2 8 -10 18 -17 15 -13 16 -12 3 4 -13 16 -21 21 -21
13z"/>
<path d="M1080 180 c-12 -7 -10 -9 7 -7 12 0 19 5 17 9 -6 10 -6 10 -24 -2z"/>
<path d="M1540 185 c0 -7 30 -13 34 -7 3 4 -4 9 -15 9 -10 1 -19 0 -19 -2z"/>
<path d="M1799 153 c-13 -16 -12 -17 4 -4 16 13 21 21 13 21 -2 0 -10 -8 -17
-17z"/>
<path d="M1010 151 c0 -6 4 -13 10 -16 6 -3 7 1 4 9 -7 18 -14 21 -14 7z"/>
<path d="M1759 133 c-13 -16 -12 -17 4 -4 16 13 21 21 13 21 -2 0 -10 -8 -17
-17z"/>
</g>
</svg>
